<?xml version="1.0" encoding="UTF-8"?>
<svg id="Layer_2" data-name="Layer 2" xmlns="http://www.w3.org/2000/svg" viewBox="0 0 145.1 80.18">
  <defs>
    <style>
      .cls-1 {
        fill: red;
      }
    </style>
  </defs>
  <g id="Layer_3" data-name="Layer 3">
    <path class="cls-1" d="m142.69,61.92l-3.13,3.65c-5.48-2.8-9.33-9.26-9.33-9.26.56-.56.6-1.88.72-2.59.25-1.5.41-3.02.56-4.53.33-3.37.41-9.05.41-12.44,0-7.56,0-12.79,0-20.35.07-7.11-4.24-9.2-4.24-9.2L110.67,0c-5.09,4.53-11.67,14.64-11.67,14.64v-7.3L77.93,0c-4.85,4.36-10.78,12.84-13.05,16.2.2-7.2-4.91-10.23-4.91-10.23L46.96,0l-9.98,14.58c8.51,3.13,10.53,5.58,10.53,5.58l-.06,19.3c.29,8.41-.59,14.35-.59,14.35-1.57,5.28-7.92,11.74-7.92,11.74-6.55-4.7-8.71-8.9-8.71-8.9-.38-1.14.46-3.64.61-4.81.3-2.38.65-4.74.78-7.14.29-5.2-.02-8.16-.02-13.36V7.24L14.87,0C6.55,10.57,0,16.04,0,16.04l2.35,2.54,3.13-4.21,8.51,3.91c0,1.13.02,2.25.03,3.38.04,4.84.08,7.53.11,12.37.05,6.62.36,15.41-.75,21.96-.3,1.75-.66,3.49-1.11,5.21-.06.21-.66,1.7-.54,1.88,9.29,13.3,18.29,17.02,18.29,17.02,5.48-5.18,14.97-16.83,14.97-16.83,9.1,12.91,18.29,16.83,18.29,16.83,1.57-2.64,14.38-15.55,14.38-15.55.03.01-1.86-2.54-1.86-2.54l-3.13,3.52c-8.8-5.67-9.29-9.2-9.29-9.2.94-1.88.74-4.9,1-6.95.87-6.87.5-13.85.49-20.77,0-2.2,0-4.4-.01-6.6l5.36-6.81,11.41,4.24s.07,14.15-.07,25.83c-.13,11.67-2.48,17.74-2.48,17.74,7.7,12,18.13,17.15,18.13,17.15l11.15-13.3c-8.8-5.61-11.02-10.43-11.02-10.43,1.17-.72,1.63-14.28,1.63-14.28l.13-22.17,3.52-4.89,11.8,4.7v23.93c-.07,14.67-2.41,19.43-2.41,19.43,9,13.17,18.2,17.02,18.2,17.02,6.13-7.89,14.87-15.72,14.87-15.72l-2.41-2.54Z"/>
  </g>
</svg>